<?xml version="1.0" encoding="utf-8"?>
<!-- Generator: Adobe Illustrator 26.3.1, SVG Export Plug-In . SVG Version: 6.00 Build 0)  -->
<svg version="1.1" id="Layer_1" xmlns="http://www.w3.org/2000/svg" xmlns:xlink="http://www.w3.org/1999/xlink" x="0px" y="0px"
	 viewBox="0 0 252 144" style="enable-background:new 0 0 252 144;" xml:space="preserve">
<path d="M135.37,56.8c0.09-0.37,0.2-0.66,0.33-0.88c0.12-0.19,0.3-0.27,0.54-0.28c0.22,0,0.38,0.07,0.5,0.19
	c0.13,0.13,0.24,0.32,0.33,0.56c0.27,0.69,0.53,1.18,0.79,1.49c0.27,0.33,0.68,0.5,1.21,0.51c0.52,0.01,0.96-0.16,1.29-0.52
	c0.33-0.36,0.48-0.79,0.45-1.29c-0.03-0.53-0.23-1-0.59-1.38c-0.35-0.38-0.82-0.68-1.38-0.89c-0.56-0.21-1.14-0.32-1.75-0.33
	c-1.61-0.04-2.94,0.38-3.96,1.23c-1.01,0.85-1.77,1.84-2.24,2.95c-0.38,0.89-0.74,1.95-1.05,3.15c-0.7-0.13-1.53-0.21-2.47-0.23
	c-2.39-0.05-4.29,0.29-5.65,1.01c-1.37,0.74-2.2,1.64-2.47,2.67c-0.14,0.56-0.05,0.99,0.28,1.29c0.32,0.29,0.74,0.44,1.24,0.45
	c0.8,0.01,1.39-0.14,1.74-0.48c0.34-0.32,0.62-0.75,0.85-1.26c0.3-0.68,0.68-1.19,1.14-1.51c0.45-0.32,1.12-0.47,1.96-0.45
	c0.86,0.02,1.45,0.23,1.85,0.67c0.51,0.55,0.66,1.08,0.49,1.73l-0.19,0.84l-0.04,0.14c-1.72,0.36-3.12,0.7-4.39,1.08
	c-0.18,0.05-0.36,0.09-0.52,0.14c-0.67,0.19-1.35,0.43-2.07,0.71l-0.05,0.02l-0.03,0.02c-0.38,0.15-0.77,0.31-1.11,0.48
	c-0.95,0.47-1.73,1.03-2.32,1.65c-0.6,0.63-1,1.34-1.21,2.13c-0.25,0.98-0.04,1.79,0.63,2.4c0.66,0.61,1.63,0.93,2.88,0.96
	c0.06,0,0.12,0,0.18,0c1.83,0,3.84-0.65,5.99-1.94l-0.7,2.64c-0.39,1.5-1.04,4-2.07,4.57c-0.44,0.25-0.51,0.13-0.62-0.04
	c-0.1-0.16-0.25-0.39-0.68-0.18c-0.77,0.39-0.93,0.89-0.81,1.22c0.11,0.34,0.54,0.63,1.25,0.63c0.17,0,0.35-0.02,0.55-0.05
	c0.04-0.01,4.19-0.94,6.34-5.87l0.05-0.12c0.54-1.23,0.79-1.79,1.36-3.94l0.95-3.63c-1.59,0.33-3.16,0.69-4.64,1.08l-0.47,1.75
	c-0.61,0.36-1.51,0.76-2.06,1l-0.07,0.03c-0.52,0.23-1.09,0.34-1.7,0.33c-0.54-0.01-0.92-0.16-1.13-0.44
	c-0.22-0.28-0.26-0.64-0.14-1.11c0.15-0.57,0.59-1.15,1.31-1.74c0.43-0.35,1.3-0.76,2.51-1.18c0.13-0.03,0.28-0.07,0.41-0.1
	c0,0,0.01-0.01,0.01-0.01c1.87-0.45,4.35-1.09,7.68-1.63c0.1-0.02,0.18-0.02,0.27-0.03c1.18-0.22,2.34-0.42,3.47-0.61
	c1.72-0.28,2.3-1,2.5-1.41c0.19-0.39,0.18-0.81-0.01-1.15c-0.26-0.45-1-0.65-1.39-0.59c-0.81,0.12-0.82,0.6-0.83,0.89
	c-0.01,0.26-0.01,0.36-0.46,0.43c-1.53,0.25-2.93,0.48-4.27,0.72L135.37,56.8L135.37,56.8z"/>
</svg>
