<?xml version="1.0" encoding="UTF-8" standalone="no"?>
<!DOCTYPE svg PUBLIC "-//W3C//DTD SVG 20010904//EN"
              "http://www.w3.org/TR/2001/REC-SVG-20010904/DTD/svg10.dtd">

<svg xmlns="http://www.w3.org/2000/svg"
     width="180.6mm" height="180.6mm"
     viewBox="0 0 512 512">
  <path id="Selection"
        fill="none" stroke="black" stroke-width="1"
        d="M 46.00,262.00
           C 39.20,263.99 34.59,265.26 29.17,270.32
             22.57,276.49 14.80,296.89 10.70,306.00
             4.95,318.74 -0.17,325.68 0.00,340.00
             0.18,354.80 10.97,367.17 26.00,368.00
             26.00,368.00 9.98,391.00 9.98,391.00
             6.48,396.08 2.51,400.95 0.79,407.00
             -0.19,410.43 -0.04,414.44 0.00,418.00
             0.25,438.51 19.89,451.28 39.00,445.56
             53.79,441.14 60.74,425.79 69.14,414.00
             74.84,406.01 75.71,400.07 86.00,400.00
             86.00,400.00 111.00,400.00 111.00,400.00
             100.91,408.67 85.81,416.68 82.16,430.00
             78.58,443.07 84.69,456.60 88.66,469.00
             88.66,469.00 96.46,494.00 96.46,494.00
             98.89,499.75 102.68,504.42 108.00,507.73
             122.54,516.77 143.34,512.13 151.65,497.00
             154.98,490.94 155.56,483.79 154.83,477.00
             154.83,477.00 147.00,450.00 147.00,450.00
             153.11,446.86 158.51,442.47 164.00,438.37
             166.02,436.86 170.14,433.51 172.58,433.20
             174.72,432.93 179.73,435.46 182.00,436.32
             188.00,438.57 206.20,444.55 212.00,443.62
             214.97,443.14 217.59,441.45 219.26,438.95
             222.43,434.21 220.74,427.06 215.90,424.14
             213.38,422.62 206.32,421.49 203.00,420.58
             194.26,418.17 188.11,415.81 180.00,411.75
             134.90,389.20 110.66,346.35 107.51,297.00
             107.15,291.33 108.64,282.53 110.15,277.00
             118.85,245.24 147.87,222.05 181.00,222.00
             181.00,222.00 331.00,222.00 331.00,222.00
             369.55,222.06 403.94,255.14 404.00,294.00
             404.00,294.00 404.00,299.00 404.00,299.00
             403.93,304.63 402.30,313.30 401.20,319.00
             394.37,354.40 375.51,384.44 345.00,404.31
             333.65,411.70 321.10,417.35 308.00,420.85
             301.57,422.56 293.64,422.53 291.04,430.00
             288.80,436.47 293.30,442.99 300.00,443.75
             305.89,444.42 323.88,438.53 330.00,436.31
             332.59,435.36 337.56,432.68 340.00,432.95
             342.85,433.26 346.71,436.80 349.00,438.58
             353.65,442.19 359.97,447.34 365.00,450.00
             365.00,450.00 361.33,461.00 361.33,461.00
             359.26,467.34 356.74,474.29 356.37,481.00
             355.71,493.28 363.03,504.59 374.00,509.68
             378.24,511.64 380.40,511.94 385.00,512.00
             388.56,512.04 392.57,512.19 396.00,511.21
             414.23,506.03 416.32,490.43 421.33,475.00
             421.33,475.00 425.27,462.00 425.27,462.00
             430.05,447.77 434.94,434.64 425.27,421.00
             421.69,416.06 417.75,413.20 413.00,409.63
             408.80,406.47 404.85,403.07 400.00,401.00
             406.10,399.27 419.12,399.95 426.00,400.00
             427.72,400.01 430.23,399.94 431.82,400.60
             435.30,402.05 441.02,411.58 443.34,415.00
             450.98,426.22 458.54,440.84 472.00,445.25
             491.23,451.56 511.75,438.88 512.00,418.00
             512.05,413.38 512.13,410.48 510.64,406.00
             508.44,399.40 491.02,374.50 486.00,368.00
             500.80,366.66 511.82,354.88 512.00,340.00
             512.16,326.13 508.25,322.17 503.00,310.00
             499.14,301.06 488.92,276.10 482.82,270.32
             477.89,265.66 472.29,263.88 466.00,262.00
             474.97,257.34 481.13,254.88 489.00,247.83
             502.91,235.35 511.97,216.76 512.00,198.00
             512.00,198.00 512.00,185.00 512.00,185.00
             512.00,185.00 512.00,157.00 512.00,157.00
             512.00,138.12 514.40,119.35 505.73,102.00
             499.72,89.97 492.28,83.28 483.00,74.00
             483.00,74.00 455.00,46.00 455.00,46.00
             455.00,46.00 421.00,12.00 421.00,12.00
             416.72,7.72 411.28,0.72 405.00,0.11
             396.36,-0.73 393.11,4.05 393.00,12.00
             393.00,12.00 393.00,77.00 393.00,77.00
             393.00,77.00 331.00,77.00 331.00,77.00
             328.19,77.00 324.64,76.87 322.00,77.89
             315.98,80.22 313.28,87.20 316.17,93.00
             317.70,96.05 322.47,100.47 325.00,103.00
             325.00,103.00 342.00,120.00 342.00,120.00
             342.00,120.00 393.00,171.00 393.00,171.00
             402.61,180.61 414.76,192.52 429.00,194.00
             424.55,200.21 412.94,211.07 407.00,217.00
             404.90,219.10 399.86,224.85 397.00,225.12
             394.50,225.37 391.84,222.71 390.00,221.28
             385.99,218.17 379.48,213.87 375.00,211.49
             361.16,204.13 345.56,201.00 330.00,201.00
             330.69,197.22 331.97,191.70 331.68,188.00
             331.27,182.89 329.62,176.34 326.87,172.00
             310.18,145.70 267.37,155.57 267.00,188.00
             266.94,193.73 266.75,195.60 269.00,201.00
             269.00,201.00 243.00,201.00 243.00,201.00
             247.33,189.15 244.88,175.25 235.82,166.18
             222.20,152.57 197.43,154.10 186.22,170.01
             183.48,173.90 181.66,178.36 180.67,183.00
             179.29,189.45 180.34,194.75 182.00,201.00
             166.58,201.00 150.76,204.08 137.00,211.32
             131.83,214.04 126.62,217.45 122.00,221.01
             120.26,222.35 117.29,225.09 115.00,224.99
             112.20,224.87 107.97,219.96 106.00,218.00
             99.96,211.96 87.47,200.25 83.00,194.00
             97.24,192.52 109.39,180.61 119.00,171.00
             119.00,171.00 170.00,120.00 170.00,120.00
             170.00,120.00 187.00,103.00 187.00,103.00
             189.53,100.47 194.30,96.05 195.83,93.00
             198.72,87.20 196.02,80.22 190.00,77.89
             187.36,76.87 183.81,77.00 181.00,77.00
             181.00,77.00 119.00,77.00 119.00,77.00
             119.00,77.00 119.00,14.00 119.00,14.00
             118.99,5.59 117.30,-0.89 107.00,0.11
             100.55,0.74 94.43,8.57 90.00,13.00
             90.00,13.00 55.00,48.00 55.00,48.00
             55.00,48.00 28.00,75.00 28.00,75.00
             18.90,84.10 12.01,90.17 6.26,102.00
             -2.43,119.86 0.00,137.64 0.00,157.00
             0.00,157.00 0.00,185.00 0.00,185.00
             0.00,185.00 0.00,199.00 0.00,199.00
             0.09,217.09 9.67,235.87 23.00,247.83
             30.87,254.88 37.03,257.34 46.00,262.00 Z
           M 98.00,36.00
           C 98.00,36.00 98.00,77.00 98.00,77.00
             92.16,77.00 82.79,75.97 78.04,79.51
             71.89,84.10 71.35,91.85 78.04,96.26
             81.08,98.27 84.53,97.99 88.00,98.00
             88.00,98.00 161.00,98.00 161.00,98.00
             156.36,104.48 139.62,120.38 133.00,127.00
             133.00,127.00 108.00,152.00 108.00,152.00
             95.82,164.18 87.29,174.00 69.00,175.83
             43.73,178.36 21.12,158.43 21.00,133.00
             20.89,110.24 30.81,102.19 46.00,87.00
             46.00,87.00 68.00,65.00 68.00,65.00
             74.75,58.25 91.46,40.68 98.00,36.00 Z
           M 415.00,36.00
           C 415.00,36.00 462.00,83.00 462.00,83.00
             478.92,99.92 491.30,108.40 491.00,134.00
             490.64,164.02 459.53,183.05 432.00,173.30
             417.91,168.31 408.27,156.27 398.00,146.00
             398.00,146.00 368.00,116.00 368.00,116.00
             362.71,110.71 355.21,103.87 351.00,98.00
             351.00,98.00 424.00,98.00 424.00,98.00
             427.47,97.99 430.92,98.27 433.96,96.26
             440.65,91.85 440.11,84.10 433.96,79.51
             429.21,75.97 419.84,77.00 414.00,77.00
             414.00,77.00 414.00,50.00 414.00,50.00
             414.00,50.00 415.00,36.00 415.00,36.00 Z
           M 211.00,178.36
           C 227.38,177.28 227.77,198.65 214.00,200.62
             206.42,201.71 199.82,193.84 201.58,187.00
             202.85,182.08 206.40,179.67 211.00,178.36 Z
           M 297.00,178.41
           C 313.26,176.94 314.63,197.86 301.00,200.59
             292.33,202.33 285.65,192.90 288.74,185.02
             290.27,181.09 293.25,179.59 297.00,178.41 Z
           M 492.00,180.00
           C 492.00,192.62 491.77,206.62 485.68,218.00
             476.10,235.90 462.96,239.66 446.00,247.30
             446.00,247.30 418.00,259.00 418.00,259.00
             418.00,259.00 411.82,244.00 411.82,244.00
             411.82,244.00 417.00,237.00 417.00,237.00
             417.00,237.00 431.00,223.09 431.00,223.09
             431.00,223.09 459.00,196.72 459.00,196.72
             459.00,196.72 475.00,190.68 475.00,190.68
             475.00,190.68 492.00,180.00 492.00,180.00 Z
           M 22.00,181.00
           C 22.00,181.00 39.00,191.57 39.00,191.57
             39.00,191.57 53.00,196.72 53.00,196.72
             53.00,196.72 66.00,209.00 66.00,209.00
             66.00,209.00 83.00,225.00 83.00,225.00
             83.00,225.00 95.00,237.00 95.00,237.00
             95.00,237.00 100.13,244.00 100.13,244.00
             100.13,244.00 94.00,259.00 94.00,259.00
             94.00,259.00 71.00,249.42 71.00,249.42
             51.51,240.97 33.40,235.58 24.60,214.00
             22.21,208.11 21.08,204.40 21.00,198.00
             20.95,193.30 20.35,185.16 22.00,181.00 Z
           M 87.00,283.00
           C 87.00,283.00 86.34,295.00 86.34,295.00
             86.34,295.00 87.00,302.00 87.00,302.00
             78.87,302.00 61.07,299.81 55.63,306.21
             55.63,306.21 41.00,337.00 41.00,337.00
             38.73,342.23 35.83,348.09 29.00,347.29
             20.85,346.33 19.86,338.32 22.35,332.00
             22.35,332.00 36.70,300.00 36.70,300.00
             41.11,290.21 41.70,283.17 54.00,283.00
             54.00,283.00 87.00,283.00 87.00,283.00 Z
           M 425.00,302.00
           C 425.00,302.00 425.00,283.00 425.00,283.00
             425.00,283.00 458.00,283.00 458.00,283.00
             462.68,283.07 465.32,283.36 468.61,287.11
             471.41,290.29 475.86,301.52 477.86,306.00
             477.86,306.00 490.37,334.00 490.37,334.00
             492.02,339.87 489.76,346.49 483.00,347.29
             476.63,348.04 473.65,342.88 471.26,338.00
             471.26,338.00 457.36,308.02 457.36,308.02
             455.72,305.77 453.64,303.75 451.00,302.74
             447.72,301.48 429.76,302.00 425.00,302.00 Z
           M 90.00,323.00
           C 90.00,323.00 94.00,341.00 94.00,341.00
             94.00,341.00 63.00,341.00 63.00,341.00
             63.70,337.29 68.03,325.14 71.39,323.57
             73.44,322.62 86.81,323.00 90.00,323.00 Z
           M 449.00,341.00
           C 449.00,341.00 418.00,341.00 418.00,341.00
             418.00,341.00 422.00,323.00 422.00,323.00
             425.21,323.00 438.52,322.59 440.61,323.57
             443.82,325.09 448.15,337.38 449.00,341.00 Z
           M 111.00,379.00
           C 111.00,379.00 77.00,379.00 77.00,379.00
             72.56,379.06 69.64,379.22 66.09,382.28
             62.49,385.38 46.52,409.33 42.66,415.00
             39.56,419.55 35.40,426.23 29.00,425.55
             23.17,424.94 20.26,419.40 21.28,414.00
             22.15,409.34 28.79,401.21 31.66,397.00
             31.66,397.00 45.34,377.00 45.34,377.00
             51.43,368.06 53.42,362.06 65.00,362.00
             65.00,362.00 94.00,362.00 94.00,362.00
             96.27,362.00 99.66,361.78 101.61,363.02
             104.14,364.63 109.84,375.87 111.00,379.00 Z
           M 401.00,379.00
           C 402.18,375.27 407.17,365.03 410.38,363.02
             412.72,361.56 419.09,362.00 422.00,362.00
             422.00,362.00 448.00,362.00 448.00,362.00
             458.27,362.14 459.74,367.33 465.02,375.00
             465.02,375.00 479.66,396.00 479.66,396.00
             482.35,399.95 489.74,409.98 490.60,414.00
             491.78,419.50 488.79,424.69 483.00,425.52
             476.33,426.47 472.48,419.67 469.33,415.00
             469.33,415.00 454.72,394.00 454.72,394.00
             452.30,390.54 448.94,384.90 445.91,382.28
             442.06,378.95 438.77,379.02 434.00,379.00
             434.00,379.00 401.00,379.00 401.00,379.00 Z
           M 137.00,408.00
           C 137.00,408.00 152.00,420.00 152.00,420.00
             147.78,424.56 138.33,430.68 133.00,434.75
             129.77,437.21 125.52,440.83 124.66,445.00
             124.07,447.85 125.60,452.18 126.42,455.00
             126.42,455.00 132.65,475.00 132.65,475.00
             134.33,480.46 134.92,486.81 128.96,489.98
             124.36,492.42 118.90,490.35 116.44,485.96
             116.44,485.96 107.00,457.00 107.00,457.00
             105.85,453.52 102.11,442.03 102.20,439.00
             102.37,433.48 107.00,430.18 111.00,427.13
             111.00,427.13 137.00,408.00 137.00,408.00 Z
           M 376.00,408.00
           C 376.00,408.00 400.00,426.63 400.00,426.63
             403.92,429.58 408.90,432.68 409.57,438.00
             409.99,441.42 406.86,450.41 405.67,454.00
             405.67,454.00 395.33,485.91 395.33,485.91
             392.69,490.50 386.89,492.50 382.11,489.83
             376.71,486.81 377.25,481.03 378.72,476.00
             380.36,470.38 387.54,450.29 387.22,446.00
             386.87,441.28 383.40,438.43 380.00,435.61
             380.00,435.61 361.00,421.00 361.00,421.00
             361.00,421.00 361.00,419.00 361.00,419.00
             361.00,419.00 376.00,408.00 376.00,408.00 Z
           M 252.02,425.74
           C 238.70,433.08 248.37,449.78 259.98,444.99
             267.73,441.80 267.38,431.53 262.77,427.43
             259.56,424.58 255.88,424.81 252.02,425.74 Z" />
</svg>
