<?xml version="1.0" encoding="UTF-8" standalone="no"?>
<!DOCTYPE svg PUBLIC "-//W3C//DTD SVG 20010904//EN"
              "http://www.w3.org/TR/2001/REC-SVG-20010904/DTD/svg10.dtd">

<svg xmlns="http://www.w3.org/2000/svg"
     width="180.282mm" height="180.282mm"
     viewBox="0 0 512 512">
  <path id="Selection"
        fill="none" stroke="black" stroke-width="1"
        d="M 83.00,360.00
           C 83.00,360.00 68.00,359.04 68.00,359.04
             61.27,358.83 49.50,360.97 43.00,363.03
             27.75,367.86 12.40,378.45 3.70,392.00
             -1.73,400.44 -2.06,412.11 7.02,418.30
             11.86,421.61 28.47,422.47 35.00,423.07
             35.00,423.07 69.00,426.83 69.00,426.83
             69.00,426.83 91.00,429.19 91.00,429.19
             95.33,429.92 105.31,434.37 110.00,436.19
             110.00,436.19 147.00,450.60 147.00,450.60
             147.00,450.60 168.00,458.48 168.00,458.48
             181.39,461.34 190.50,453.70 189.96,440.00
             189.66,432.40 186.47,421.88 183.22,415.00
             171.47,390.11 154.21,379.42 129.00,371.00
             136.00,358.85 141.59,349.30 150.13,338.00
             150.13,338.00 164.84,319.00 164.84,319.00
             169.75,308.67 158.63,299.08 149.04,305.70
             146.36,307.55 140.88,314.23 138.61,317.00
             131.18,326.08 124.43,335.94 118.40,346.00
             114.68,352.19 111.89,361.69 104.00,363.00
             104.00,363.00 103.00,349.00 103.00,349.00
             102.96,325.41 103.26,309.43 108.42,286.00
             125.68,207.77 181.33,140.85 255.00,109.43
             279.17,99.11 304.83,92.66 331.00,90.04
             331.00,90.04 341.00,90.04 341.00,90.04
             341.00,90.04 353.00,89.00 353.00,89.00
             353.00,89.00 364.00,89.96 364.00,89.96
             398.24,91.45 426.81,99.30 448.76,128.00
             458.90,141.25 464.51,154.64 467.39,171.00
             467.39,171.00 469.74,192.00 469.74,192.00
             471.65,197.01 477.96,200.87 481.54,205.04
             489.20,213.98 490.99,220.55 491.00,232.00
             481.84,228.63 459.46,223.01 450.00,223.00
             450.00,223.00 374.00,223.00 374.00,223.00
             372.88,217.76 370.71,214.67 365.00,214.11
             357.26,213.36 354.75,217.57 350.40,223.00
             350.40,223.00 334.91,242.00 334.91,242.00
             324.35,253.30 310.86,261.13 296.00,265.26
             296.00,265.26 283.00,268.00 283.00,268.00
             283.00,268.00 298.33,245.00 298.33,245.00
             301.53,240.18 313.67,222.26 314.61,218.00
             316.39,209.86 311.24,204.31 303.00,205.11
             292.43,206.14 289.17,224.50 280.96,228.57
             280.96,228.57 261.00,234.14 261.00,234.14
             251.75,236.79 242.82,240.47 234.00,244.28
             230.13,245.95 223.14,248.61 220.22,251.39
             213.26,258.02 216.93,269.76 227.00,269.82
             231.94,269.84 237.55,266.35 242.00,264.31
             242.00,264.31 266.00,255.00 266.00,255.00
             266.00,255.00 260.00,264.00 260.00,264.00
             255.51,270.81 248.57,281.13 259.02,286.84
             260.49,287.64 262.37,288.06 264.00,288.38
             267.12,288.98 268.88,288.98 272.00,289.00
             272.00,289.00 280.00,289.00 280.00,289.00
             300.38,288.90 322.94,280.05 339.00,267.76
             343.69,264.18 347.87,260.39 351.83,256.00
             359.18,247.84 358.37,244.02 370.00,244.00
             370.00,244.00 446.00,244.00 446.00,244.00
             457.42,244.02 476.24,249.93 488.00,252.72
             493.64,254.28 501.82,256.94 506.78,252.72
             512.74,247.30 512.08,232.43 512.00,225.00
             511.87,214.04 507.33,202.69 500.76,194.00
             498.05,190.42 491.19,183.97 490.03,180.96
             490.03,180.96 487.57,163.00 487.57,163.00
             486.12,154.45 482.27,142.76 478.40,135.00
             472.57,123.31 465.25,112.28 455.99,103.01
             435.15,82.18 408.90,72.23 380.00,69.92
             380.00,69.92 370.00,69.00 370.00,69.00
             370.00,69.00 351.00,68.04 351.00,68.04
             351.00,68.04 338.00,69.00 338.00,69.00
             324.02,69.02 306.67,71.52 293.00,74.65
             293.00,74.65 271.00,80.42 271.00,80.42
             268.53,81.15 263.29,83.18 261.00,82.92
             258.05,82.59 245.41,72.23 241.00,69.60
             228.28,62.02 209.95,55.18 195.00,55.00
             179.25,54.82 148.70,53.00 143.30,72.00
             139.83,84.21 146.44,90.29 153.58,99.00
             153.58,99.00 166.75,115.00 166.75,115.00
             169.27,118.02 178.27,127.06 176.89,130.91
             176.05,133.25 163.69,143.66 161.04,146.17
             152.55,154.20 139.42,170.30 132.42,180.00
             104.32,218.93 86.42,266.01 82.91,314.00
             82.91,314.00 82.00,326.00 82.00,326.00
             81.99,333.86 81.16,353.53 83.00,360.00 Z
           M 237.00,94.00
           C 227.98,97.89 217.46,104.06 209.00,109.20
             206.56,110.68 199.48,115.79 197.09,115.70
             194.02,115.59 189.67,109.30 187.75,107.00
             182.72,100.96 167.69,83.81 165.00,78.00
             165.00,78.00 176.00,76.17 176.00,76.17
             190.81,74.69 204.14,76.43 218.00,81.81
             224.98,84.52 232.30,88.03 237.00,94.00 Z
           M 410.00,151.57
           C 397.20,156.70 403.08,175.02 416.00,171.43
             424.07,169.18 425.11,159.16 420.57,154.28
             417.58,151.06 414.01,150.94 410.00,151.57 Z
           M 185.00,273.74
           C 171.49,281.03 181.22,297.85 192.98,292.99
             200.48,289.90 200.23,280.27 196.57,276.28
             193.43,272.85 189.17,272.77 185.00,273.74 Z
           M 168.00,436.00
           C 168.00,436.00 98.00,408.92 98.00,408.92
             98.00,408.92 61.00,404.83 61.00,404.83
             61.00,404.83 24.00,401.00 24.00,401.00
             33.25,388.08 53.10,379.19 69.00,380.09
             69.00,380.09 84.00,381.83 84.00,381.83
             107.46,384.18 103.98,383.59 126.00,392.40
             126.00,392.40 140.00,398.32 140.00,398.32
             154.44,406.07 164.73,419.99 168.00,436.00 Z" />
</svg>
