<?xml version="1.0" encoding="UTF-8" standalone="no"?>
<!DOCTYPE svg PUBLIC "-//W3C//DTD SVG 20010904//EN"
              "http://www.w3.org/TR/2001/REC-SVG-20010904/DTD/svg10.dtd">

<svg xmlns="http://www.w3.org/2000/svg"
     width="180.6mm" height="180.6mm"
     viewBox="0 0 512 512">
  <path id="Selection"
        fill="none" stroke="black" stroke-width="1"
        d="M 176.00,270.00
           C 158.78,265.42 148.24,262.18 135.04,248.96
             135.04,248.96 108.56,215.17 108.56,215.17
             98.07,203.94 81.44,196.18 66.00,196.00
             52.91,195.85 43.38,197.66 33.00,206.32
             12.87,223.12 8.50,260.67 36.00,270.45
             40.12,271.92 43.68,272.09 48.00,271.99
             56.29,271.79 59.74,269.13 67.00,266.00
             69.85,273.45 79.30,285.73 84.59,292.00
             105.41,316.68 144.11,339.49 177.00,341.00
             165.92,360.00 144.42,367.73 126.00,353.47
             116.42,346.05 111.37,334.12 103.68,325.00
             95.44,315.24 81.73,309.54 69.00,310.04
             50.79,310.75 35.14,321.56 29.10,339.00
             22.78,357.25 29.09,377.76 50.00,381.54
             54.97,382.43 58.16,381.87 63.00,381.00
             65.09,386.47 68.61,391.35 72.13,396.00
             85.61,413.79 105.01,425.12 127.00,428.56
             127.00,428.56 135.00,429.17 135.00,429.17
             135.00,429.17 142.00,429.92 142.00,429.92
             153.12,429.92 163.37,426.43 174.00,424.00
             159.45,435.95 148.23,452.55 148.00,472.00
             147.95,477.00 147.66,484.32 148.93,489.00
             152.64,502.71 164.98,511.83 179.00,512.00
             193.24,512.16 204.25,507.60 210.67,494.00
             214.60,485.69 212.86,481.17 216.31,477.32
             216.31,477.32 228.00,467.83 228.00,467.83
             237.96,458.87 251.26,444.11 255.00,431.00
             264.17,447.10 265.27,450.43 279.00,464.00
             279.00,464.00 295.40,477.60 295.40,477.60
             297.88,480.56 296.92,486.82 300.33,494.00
             307.02,508.11 318.47,512.17 333.00,512.00
             337.69,511.94 339.66,511.65 344.00,509.69
             355.93,504.31 362.84,494.06 363.00,481.00
             363.15,468.11 362.64,458.86 356.63,447.00
             351.30,436.49 344.70,430.55 336.00,423.00
             364.88,434.47 397.99,431.04 423.00,412.10
             429.11,407.47 436.09,400.24 440.57,394.00
             442.46,391.38 446.99,383.34 449.33,382.05
             451.14,381.30 455.60,382.06 458.00,382.05
             470.12,381.16 480.71,373.04 483.47,361.00
             484.11,358.21 484.01,354.88 484.00,352.00
             483.89,327.62 463.08,309.10 439.00,310.04
             427.99,310.47 415.68,315.81 408.30,324.04
             400.22,333.06 395.34,344.83 386.00,352.79
             374.22,362.82 357.06,363.63 345.00,353.67
             340.17,349.69 337.45,346.10 334.00,341.00
             339.76,340.73 346.37,339.25 352.00,337.87
             379.34,331.20 402.41,317.06 421.99,297.00
             428.61,290.21 440.67,274.73 444.00,266.00
             451.26,269.13 454.71,271.79 463.00,271.99
             467.32,272.09 470.88,271.92 475.00,270.45
             502.23,260.76 499.62,222.72 476.00,204.53
             466.72,197.37 456.33,195.87 445.00,196.00
             426.76,196.22 410.95,205.40 399.30,219.00
             399.30,219.00 375.96,248.99 375.96,248.99
             363.16,262.05 351.86,265.52 335.00,270.00
             335.00,270.00 345.00,253.00 345.00,253.00
             345.00,253.00 374.24,204.00 374.24,204.00
             387.03,178.84 393.33,154.22 393.00,126.00
             392.89,117.33 389.42,96.47 385.44,89.04
             382.15,82.88 373.38,81.31 368.43,86.42
             365.00,89.96 365.82,96.66 367.04,101.00
             370.02,111.57 372.01,120.92 372.00,132.00
             371.95,176.90 340.40,218.00 318.20,255.00
             315.11,260.15 306.45,273.01 305.39,278.00
             304.22,283.50 306.19,288.96 312.00,290.86
             313.84,291.08 317.03,291.00 319.00,290.86
             319.00,290.86 332.00,290.86 332.00,290.86
             355.12,290.73 380.83,277.35 395.70,260.00
             410.48,242.75 422.17,215.86 449.00,217.04
             458.73,217.47 468.51,224.92 471.87,234.00
             474.12,240.09 473.61,248.61 466.00,250.45
             453.36,253.50 458.62,233.34 446.00,232.11
             434.69,231.01 435.04,239.92 432.45,245.00
             432.45,245.00 420.28,264.00 420.28,264.00
             398.16,295.80 365.99,317.10 327.00,320.94
             327.00,320.94 318.00,320.94 318.00,320.94
             309.62,321.42 303.38,325.82 305.39,335.00
             306.29,339.08 311.95,347.06 314.42,351.00
             319.92,359.79 324.32,366.22 333.00,372.09
             351.96,385.35 378.17,385.26 397.00,372.09
             406.65,365.14 411.23,357.26 417.86,348.00
             421.54,342.86 424.45,337.83 430.00,334.48
             447.35,324.02 463.95,342.31 462.82,353.00
             462.38,357.08 458.45,361.48 454.09,359.58
             451.13,358.29 443.78,345.86 434.21,353.65
             427.38,359.21 432.06,365.10 430.45,369.28
             428.90,373.34 420.17,384.68 416.96,388.00
             393.20,412.58 355.57,415.81 329.00,393.68
             321.82,387.69 316.17,380.17 310.25,373.00
             307.50,369.67 303.76,364.19 299.99,362.31
             297.99,361.32 295.20,360.90 293.00,361.24
             283.99,362.64 283.92,371.92 284.00,379.00
             284.21,397.65 290.91,416.19 305.00,428.83
             316.75,439.37 327.81,440.47 336.66,456.00
             341.81,465.02 347.62,488.41 332.00,490.76
             327.06,491.50 323.83,488.52 320.00,486.00
             322.54,483.26 325.02,480.88 325.62,477.00
             326.28,472.75 324.24,469.18 320.95,466.63
             317.12,463.67 307.04,460.22 297.00,450.91
             281.22,436.28 272.37,421.05 268.00,400.00
             266.94,394.85 266.07,391.33 266.00,386.00
             265.90,377.00 269.39,358.32 257.00,357.11
             241.47,355.60 245.05,375.15 245.00,385.00
             244.88,410.54 231.13,436.33 212.00,452.70
             202.30,461.00 192.76,464.24 189.22,467.53
             186.30,470.24 184.83,474.05 185.76,478.00
             187.06,483.53 193.43,486.26 184.99,489.92
             183.98,490.35 183.08,490.61 182.00,490.76
             178.59,491.24 175.66,490.16 173.29,487.77
             165.81,480.58 169.31,466.12 173.29,458.00
             182.06,440.62 192.78,440.57 205.00,429.82
             219.34,417.20 226.77,398.95 227.00,380.00
             227.03,377.15 227.17,371.57 226.43,369.00
             224.45,362.14 217.34,359.16 211.04,362.45
             207.31,364.40 202.73,370.62 200.00,374.00
             194.70,380.57 189.36,387.23 183.00,392.82
             159.55,413.43 125.32,413.46 101.00,394.33
             94.38,389.13 83.83,377.00 80.70,369.17
             79.27,365.59 84.05,353.24 72.00,351.38
             61.90,349.82 59.95,362.55 53.02,359.72
             47.29,357.38 47.46,350.79 49.53,346.00
             52.82,338.42 60.69,332.19 69.00,331.34
             76.52,330.57 83.81,335.42 88.33,341.01
             96.73,351.40 99.70,360.26 111.00,369.68
             131.67,386.90 162.69,385.59 182.99,368.54
             188.10,364.24 191.66,358.51 195.33,353.00
             198.45,348.33 204.99,339.32 205.79,334.00
             207.86,320.13 195.10,321.36 186.00,320.96
             186.00,320.96 177.00,319.87 177.00,319.87
             140.65,314.65 110.58,292.92 90.19,263.00
             90.19,263.00 78.55,245.00 78.55,245.00
             75.96,239.92 76.31,231.01 65.00,232.11
             52.71,233.31 59.10,245.24 49.98,249.82
             48.39,250.62 46.75,250.87 45.01,250.45
             37.71,248.66 36.97,239.89 39.13,234.00
             42.46,224.93 52.30,217.47 62.00,217.04
             88.72,215.87 100.78,242.63 115.44,260.00
             129.97,277.22 156.22,290.73 179.00,291.00
             179.00,291.00 192.00,291.00 192.00,291.00
             194.39,291.00 197.78,291.13 199.98,290.26
             206.20,287.82 207.17,280.53 204.78,275.00
             204.78,275.00 191.05,252.00 191.05,252.00
             191.05,252.00 171.00,219.00 171.00,219.00
             171.00,219.00 158.31,198.00 158.31,198.00
             147.15,177.42 138.73,152.61 139.00,129.00
             139.48,87.85 170.58,48.11 207.00,31.31
             222.64,24.09 237.02,21.59 254.00,20.71
             254.00,20.71 261.00,20.71 261.00,20.71
             275.23,21.82 283.52,23.34 297.00,28.42
             297.00,28.42 316.00,36.61 316.00,36.61
             322.05,37.83 327.66,34.18 328.62,28.00
             329.45,22.61 326.19,19.00 322.00,16.25
             315.51,12.00 304.48,8.11 297.00,5.67
             288.57,2.92 274.80,0.11 266.00,0.00
             234.39,-0.37 217.75,1.42 189.00,16.26
             174.83,23.57 161.07,34.94 150.73,47.00
             141.91,57.29 133.94,68.48 128.58,81.00
             110.92,122.28 116.77,165.84 137.32,205.00
             137.32,205.00 162.42,247.00 162.42,247.00
             162.42,247.00 176.00,270.00 176.00,270.00 Z
           M 349.00,45.74
           C 335.68,52.93 345.18,69.56 356.96,64.85
             364.45,61.86 364.55,51.67 359.77,47.43
             356.56,44.57 352.88,44.81 349.00,45.74 Z
           M 206.00,160.53
           C 200.96,161.99 197.00,163.64 193.01,167.19
             186.24,173.21 183.11,180.00 183.00,189.00
             182.97,192.01 182.87,196.12 183.53,199.00
             187.38,215.77 204.69,224.97 221.00,221.48
             244.21,216.53 252.91,187.63 237.67,170.04
             229.60,160.72 217.65,158.63 206.00,160.53 Z
           M 290.00,160.47
           C 257.59,168.17 258.30,213.37 289.00,221.39
             292.91,222.24 300.02,222.28 304.00,221.39
             325.57,217.46 335.63,190.76 323.20,173.00
             314.91,161.15 303.59,158.57 290.00,160.47 Z
           M 211.00,181.43
           C 214.58,180.92 217.76,180.74 220.61,183.43
             226.09,188.60 224.30,198.03 216.98,200.35
             204.58,204.29 198.12,186.63 211.00,181.43 Z
           M 294.02,181.51
           C 298.09,180.82 301.58,180.86 304.57,184.23
             309.21,189.45 306.94,198.74 300.00,200.57
             288.53,203.58 281.03,187.28 294.02,181.51 Z
           M 179.00,421.00
           C 179.00,421.00 179.00,422.00 179.00,422.00
             179.00,422.00 178.00,421.00 178.00,421.00
             178.00,421.00 179.00,421.00 179.00,421.00 Z
           M 333.00,421.00
           C 333.00,421.00 333.00,422.00 333.00,422.00
             333.00,422.00 332.00,421.00 332.00,421.00
             332.00,421.00 333.00,421.00 333.00,421.00 Z
           M 177.00,422.00
           C 177.00,422.00 177.00,423.00 177.00,423.00
             177.00,423.00 176.00,422.00 176.00,422.00
             176.00,422.00 177.00,422.00 177.00,422.00 Z
           M 335.00,422.00
           C 335.00,422.00 335.00,423.00 335.00,423.00
             335.00,423.00 334.00,422.00 334.00,422.00
             334.00,422.00 335.00,422.00 335.00,422.00 Z" />
</svg>
