<svg version="1.1" id="Layer_1" xmlns="http://www.w3.org/2000/svg" xmlns:xlink="http://www.w3.org/1999/xlink" x="0px" y="0px"
	 width="100%" viewBox="0 0 512 512" enable-background="new 0 0 512 512" xml:space="preserve">


<path fill="#000000" opacity="1.000000" stroke="none"
	d="
M303.622192,264.995483
	C303.379913,257.194641 302.502502,249.940094 300.564148,242.841187
	C299.070435,237.370819 295.465088,234.369293 289.684082,234.354996
	C262.356262,234.287415 235.027939,234.292038 207.700226,234.391571
	C200.888229,234.416382 197.107361,237.663544 196.271317,244.458771
	C194.756912,256.767365 190.800293,268.069458 183.509109,278.135834
	C182.481369,279.554749 181.753769,281.433960 179.360977,281.688568
	C177.099533,277.771820 177.024338,273.157440 175.560226,268.984161
	C174.072632,264.744019 172.779663,260.432617 171.195694,256.229980
	C168.272156,248.473022 161.842728,246.158371 154.842148,250.451019
	C143.922226,257.146942 134.687775,265.775330 127.047951,276.017670
	C111.143066,297.340607 104.676949,321.456421 106.446152,347.858765
	C106.700340,351.651978 107.474548,355.431549 108.264702,359.163086
	C109.852814,366.663086 114.569206,369.776978 122.123344,368.340057
	C130.476578,366.751099 138.871384,365.426117 147.386856,365.735779
	C161.802536,366.259979 175.817535,368.854156 189.082153,374.768433
	C190.525726,375.412079 192.344086,375.674500 192.968430,377.860107
	C186.149979,379.576630 179.147537,379.577362 172.345062,381.016907
	C160.517441,383.519928 149.327515,387.532410 138.542297,392.898041
	C134.883240,394.718414 132.582031,397.375671 131.154526,401.203339
	C125.278244,416.959900 122.143486,433.177917 122.365410,450.020599
	C122.391685,452.014648 122.266167,454.012054 122.153923,456.004700
	C122.140358,456.245544 121.768150,456.466187 121.156937,457.148621
	C117.461540,452.069153 114.998589,446.526215 112.659218,440.932129
	C105.775551,424.471466 103.493546,407.241669 104.862228,389.578339
	C105.439529,382.127991 102.680702,377.618958 96.354385,373.728088
	C56.681011,349.327698 32.261906,314.216278 24.629591,268.142975
	C11.375792,188.134979 66.254593,110.756966 145.634109,96.850883
	C157.840210,94.712563 170.127808,94.619102 182.460678,94.563774
	C197.109741,94.498077 211.794067,95.528496 226.402420,93.915054
	C234.458755,93.025269 238.187042,86.924774 235.628128,79.218735
	C230.558411,63.951660 223.293121,49.757915 214.298859,36.427502
	C212.852066,34.283207 210.779663,32.434879 210.379059,29.310352
	C216.436844,27.584291 222.377548,29.058882 228.123428,29.899139
	C268.830536,35.851997 302.901947,54.134220 329.200684,85.978378
	C334.452606,92.337730 339.963348,95.035370 348.339020,94.954361
	C393.493317,94.517670 438.653320,94.668564 483.811371,94.629776
	C490.804016,94.623764 491.096924,94.687897 490.300781,101.745346
	C488.032959,121.848289 481.698029,140.650970 471.720795,158.261475
	C470.082062,161.153992 467.715485,161.324341 464.967804,161.321991
	C446.971222,161.306549 428.974670,161.324249 410.978088,161.342239
	C409.313080,161.343903 407.626221,161.266296 405.987183,161.495224
	C400.610382,162.246216 396.645813,166.430344 396.404633,171.443008
	C396.171814,176.281448 399.455505,180.407990 404.868164,181.703491
	C407.109222,182.239883 409.469604,182.481613 411.778198,182.497513
	C423.775299,182.580246 435.773224,182.530685 447.770721,182.573410
	C449.363831,182.579086 451.115540,182.008118 452.806396,183.725357
	C446.903534,190.953827 440.056183,197.167435 432.692261,202.817856
	C410.079865,220.168640 384.549591,230.261154 356.225433,233.316803
	C345.837433,234.437454 342.834808,237.562469 342.353485,247.793488
	C341.293549,270.323486 323.288452,292.485992 301.467560,298.028015
	C299.932587,298.417877 298.305206,299.141846 296.029816,298.004395
	C300.102173,287.552551 303.468475,276.844696 303.622192,264.995483
M106.551849,168.029892
	C112.044228,163.138062 118.151375,159.161453 124.527649,155.508957
	C131.368423,151.590363 139.017960,149.668518 146.061325,146.306610
	C150.318787,144.274445 152.890823,140.709595 152.232666,135.909393
	C151.563980,131.032501 148.435287,127.861847 143.505157,126.796562
	C140.966461,126.248009 138.536438,127.086533 136.185135,127.870125
	C95.976746,141.270187 69.371178,168.303253 55.774639,208.303802
	C54.814976,211.127106 54.093346,214.046219 54.081261,217.085953
	C54.060852,222.218903 57.022690,226.215179 61.788055,227.409744
	C66.216049,228.519730 70.951180,226.505249 73.154968,222.215881
	C74.359558,219.871292 75.113007,217.278290 75.922905,214.750229
	C81.742661,196.584015 91.660194,181.097290 106.551849,168.029892
M353.877930,136.361053
	C355.483063,129.416946 352.472534,124.237091 345.960114,122.737823
	C341.450500,121.699638 336.993744,124.127296 334.035065,129.831985
	C326.034241,145.258575 326.055206,160.754044 334.220825,176.142746
	C337.599121,182.509354 343.139130,184.704971 348.634399,182.018295
	C354.106598,179.342926 356.227417,173.406937 353.045837,167.154282
	C347.823364,156.890717 348.407410,147.021149 353.877930,136.361053
M287.186310,162.432312
	C287.678101,167.172775 289.710022,171.372040 291.866394,175.508118
	C295.404419,182.294174 300.790375,184.660355 306.503998,182.032028
	C312.085693,179.464386 314.021088,173.418350 310.812195,166.743790
	C306.218231,157.188339 306.268951,147.885315 311.014221,138.455826
	C312.283173,135.934250 313.174683,133.218994 312.193390,130.270828
	C310.728027,125.868225 307.653656,123.212532 303.152191,122.721199
	C298.313629,122.193077 294.849823,124.835396 292.519562,128.831665
	C286.570312,139.034164 285.105225,150.042099 287.186310,162.432312
M424.913086,132.567383
	C429.792664,136.319885 434.216797,136.672928 437.988220,133.610748
	C441.555542,130.714294 442.629486,125.852295 440.565887,121.940742
	C438.093231,117.253769 432.319641,115.227692 427.837280,117.610001
	C422.323425,120.540520 420.476562,127.148735 424.913086,132.567383
z"/>
</svg>