<?xml version="1.0" encoding="UTF-8" standalone="no"?>
<!DOCTYPE svg PUBLIC "-//W3C//DTD SVG 20010904//EN"
              "http://www.w3.org/TR/2001/REC-SVG-20010904/DTD/svg10.dtd">

<svg xmlns="http://www.w3.org/2000/svg"
     width="180.282mm" height="180.282mm"
     viewBox="0 0 512 512">
  <path id="Selection"
        fill="none" stroke="black" stroke-width="1"
        d="M 248.00,12.53
           C 230.77,17.63 226.03,34.45 218.75,49.00
             218.75,49.00 191.78,103.00 191.78,103.00
             185.45,116.39 179.34,132.22 168.91,142.96
             153.50,158.84 136.51,160.31 116.00,163.27
             116.00,163.27 46.00,173.42 46.00,173.42
             28.16,176.07 6.88,175.58 0.79,197.00
             -0.19,200.43 -0.04,204.44 0.00,208.00
             0.16,220.78 6.56,225.56 15.00,234.00
             15.00,234.00 28.00,247.00 28.00,247.00
             28.00,247.00 76.00,294.00 76.00,294.00
             93.25,311.25 106.03,321.50 106.00,348.00
             105.99,357.76 103.08,370.07 101.41,380.00
             101.41,380.00 92.58,432.00 92.58,432.00
             92.58,432.00 86.09,471.00 86.09,471.00
             84.91,491.76 104.28,506.30 124.00,501.24
             130.20,499.65 151.16,488.01 158.00,484.31
             158.00,484.31 210.00,457.14 210.00,457.14
             223.57,449.62 240.14,440.01 256.00,440.01
             271.86,440.01 288.43,449.62 302.00,457.14
             302.00,457.14 356.00,485.31 356.00,485.31
             362.72,488.94 381.78,499.65 388.00,501.24
             407.68,506.29 427.09,491.73 425.91,471.00
             425.91,471.00 419.08,430.00 419.08,430.00
             419.08,430.00 413.08,395.00 413.08,395.00
             413.08,395.00 408.98,371.00 408.98,371.00
             405.68,356.96 391.61,359.94 388.74,367.04
             386.72,372.02 389.97,385.28 390.92,391.00
             390.92,391.00 401.00,450.00 401.00,450.00
             401.82,454.22 405.17,470.84 404.17,474.00
             403.41,476.40 401.24,478.71 398.98,479.81
             395.35,481.58 392.29,479.84 389.00,478.24
             389.00,478.24 370.00,468.25 370.00,468.25
             370.00,468.25 308.00,435.74 308.00,435.74
             308.00,435.74 289.00,425.87 289.00,425.87
             272.01,418.60 251.82,416.74 234.00,422.04
             220.70,425.98 215.65,429.89 204.00,435.75
             204.00,435.75 170.00,453.58 170.00,453.58
             170.00,453.58 155.00,461.31 155.00,461.31
             155.00,461.31 127.00,476.24 127.00,476.24
             121.40,479.09 115.73,483.30 110.23,477.77
             106.47,474.01 107.48,470.67 108.25,466.00
             108.25,466.00 111.92,445.00 111.92,445.00
             111.92,445.00 122.08,385.00 122.08,385.00
             122.08,385.00 127.00,353.00 127.00,353.00
             127.16,339.35 126.81,329.98 121.55,317.00
             113.88,298.06 104.86,291.51 91.00,277.99
             91.00,277.99 61.00,248.09 61.00,248.09
             61.00,248.09 30.00,218.00 30.00,218.00
             26.89,214.89 20.57,209.85 21.37,205.00
             21.98,201.31 25.60,198.43 29.00,197.42
             29.00,197.42 56.00,193.42 56.00,193.42
             56.00,193.42 123.00,183.59 123.00,183.59
             140.08,180.84 148.87,181.08 165.00,172.74
             189.96,159.84 196.56,142.37 208.25,119.00
             208.25,119.00 229.86,75.00 229.86,75.00
             229.86,75.00 245.25,44.00 245.25,44.00
             247.25,40.04 250.11,34.18 255.00,33.37
             261.56,32.29 265.41,41.32 267.75,46.00
             267.75,46.00 290.25,92.00 290.25,92.00
             299.04,109.58 313.99,143.62 326.17,157.00
             336.26,168.07 350.53,176.03 365.00,179.63
             365.00,179.63 400.00,185.13 400.00,185.13
             400.00,185.13 457.00,193.42 457.00,193.42
             457.00,193.42 484.00,197.73 484.00,197.73
             486.13,198.58 488.13,200.13 489.40,202.04
             494.22,209.27 481.70,218.30 477.00,223.00
             477.00,223.00 425.00,274.00 425.00,274.00
             422.32,276.68 416.75,281.85 415.17,285.00
             412.01,291.35 415.84,298.85 423.00,299.77
             432.12,300.95 442.91,287.09 449.00,281.00
             449.00,281.00 494.00,237.00 494.00,237.00
             503.07,227.93 511.83,221.87 512.00,208.00
             512.04,204.44 512.19,200.43 511.21,197.00
             505.01,175.20 482.95,176.18 465.00,173.25
             465.00,173.25 391.00,162.42 391.00,162.42
             371.49,159.39 356.51,157.65 342.17,141.99
             332.66,131.59 327.77,118.46 321.74,106.00
             321.74,106.00 292.25,47.00 292.25,47.00
             284.00,30.51 279.13,12.10 257.00,12.00
             253.52,11.99 251.48,11.96 248.00,12.53 Z
           M 252.02,84.74
           C 243.64,89.36 245.96,99.57 246.00,108.00
             246.01,110.14 245.93,112.97 246.74,114.96
             248.78,120.01 255.13,122.00 259.98,119.99
             266.23,117.42 265.99,112.74 266.00,107.00
             266.02,96.54 268.50,80.78 252.02,84.74 Z
           M 252.02,145.74
           C 243.64,150.36 245.96,160.57 246.00,169.00
             246.01,171.14 245.93,173.97 246.74,175.96
             248.78,181.01 255.13,183.00 259.98,180.99
             266.23,178.42 265.99,173.74 266.00,168.00
             266.02,157.54 268.50,141.78 252.02,145.74 Z
           M 252.02,206.74
           C 243.65,211.35 245.94,221.58 246.00,230.00
             246.02,232.34 245.91,234.84 247.02,236.98
             249.39,241.51 255.32,243.15 260.00,241.40
             265.91,239.19 265.99,234.32 266.00,229.00
             266.02,218.54 268.50,202.78 252.02,206.74 Z
           M 67.02,208.74
           C 60.81,212.16 58.68,219.95 63.65,225.47
             67.14,229.34 85.07,234.95 90.00,233.11
             97.37,230.34 99.25,220.97 93.61,215.56
             88.89,211.03 73.33,207.22 67.02,208.74 Z
           M 437.00,208.55
           C 431.43,209.87 419.16,212.78 415.70,217.21
             410.54,223.80 414.53,235.69 427.00,233.68
             432.25,232.83 444.27,229.05 447.49,224.90
             452.71,218.17 448.26,207.70 437.00,208.55 Z
           M 125.02,227.74
           C 118.50,231.34 116.65,239.29 122.23,244.73
             126.12,248.52 142.79,253.78 148.00,251.84
             156.58,248.65 156.37,238.83 151.72,234.42
             146.90,229.84 131.45,226.18 125.02,227.74 Z
           M 378.00,227.52
           C 372.90,228.87 360.75,232.10 357.70,236.13
             352.42,243.09 356.73,255.28 370.00,252.48
             375.01,251.43 386.43,247.89 389.44,243.89
             394.65,236.98 390.09,225.91 378.00,227.52 Z
           M 183.02,246.74
           C 176.57,250.29 174.59,258.27 180.23,263.61
             184.41,267.57 201.42,272.45 206.98,270.26
             213.81,267.58 214.87,258.22 209.77,253.39
             204.81,248.69 189.62,245.14 183.02,246.74 Z
           M 320.00,246.52
           C 314.38,248.01 302.98,250.56 299.56,255.11
             294.33,262.04 299.33,273.82 311.00,271.48
             316.06,270.47 328.33,266.92 331.30,262.89
             336.29,256.14 332.74,244.63 320.00,246.52 Z
           M 252.02,268.74
           C 239.63,275.57 247.85,293.00 259.98,287.99
             267.73,284.80 267.38,274.53 262.77,270.43
             259.56,267.58 255.88,267.81 252.02,268.74 Z
           M 221.00,311.74
           C 215.80,314.48 206.90,325.23 205.43,331.00
             203.83,337.26 207.44,343.61 214.00,344.62
             216.42,344.99 218.89,344.44 220.96,343.15
             225.75,340.17 234.49,327.76 234.88,322.00
             235.49,313.10 228.80,309.88 221.00,311.74 Z
           M 285.07,312.65
           C 272.21,318.14 279.27,329.31 285.07,337.00
             289.16,342.29 293.54,347.71 300.98,345.35
             306.00,343.76 308.42,339.07 307.77,334.00
             307.11,328.80 297.62,315.62 292.99,313.31
             290.06,311.86 288.05,312.09 285.07,312.65 Z
           M 186.00,360.65
           C 179.25,363.50 168.24,377.29 169.23,385.00
             169.86,389.90 173.10,393.14 178.00,393.77
             180.72,394.12 183.54,393.52 185.83,391.99
             191.33,388.33 199.55,375.80 198.89,369.00
             198.19,361.88 192.37,359.49 186.00,360.65 Z
           M 323.00,361.64
           C 315.04,363.13 311.91,369.51 314.85,377.00
             315.77,379.35 318.46,382.85 320.00,385.00
             321.85,387.60 324.46,391.51 327.09,393.26
             328.70,394.34 330.10,394.70 332.00,394.89
             339.99,395.67 345.39,389.85 343.44,382.00
             342.34,377.58 333.66,365.65 329.83,363.28
             327.34,361.74 325.77,361.70 323.00,361.64 Z
           M 148.00,411.02
           C 143.19,414.30 134.54,425.19 133.41,431.00
             132.25,436.89 135.93,442.30 142.00,442.89
             144.25,443.11 146.95,442.87 148.99,441.83
             153.63,439.44 162.93,426.31 163.36,421.00
             164.14,411.46 155.80,408.41 148.00,411.02 Z
           M 356.15,411.74
           C 344.17,418.11 350.55,427.07 356.15,435.00
             360.34,440.58 365.22,446.88 372.98,443.85
             379.93,441.14 381.17,434.16 377.95,428.00
             376.67,425.54 374.12,422.33 372.42,420.00
             367.54,413.29 364.88,409.62 356.15,411.74 Z" />
</svg>
