<?xml version="1.0" encoding="UTF-8" standalone="no"?>
<!DOCTYPE svg PUBLIC "-//W3C//DTD SVG 20010904//EN"
              "http://www.w3.org/TR/2001/REC-SVG-20010904/DTD/svg10.dtd">

<svg xmlns="http://www.w3.org/2000/svg"
     width="135.45mm" height="135.45mm"
     viewBox="0 0 512 512">
  <path id="Selection"
        fill="none" stroke="black" stroke-width="1"
        d="M 164.00,120.00
           C 155.50,124.02 143.31,138.51 137.08,146.00
             121.36,164.90 109.68,184.09 98.75,206.00
             94.57,214.39 86.37,233.16 85.00,242.00
             65.61,242.00 42.84,241.06 27.04,254.47
             18.47,261.74 10.92,276.45 7.05,287.00
             0.98,303.56 -0.08,313.67 0.00,331.00
             0.06,343.66 4.10,355.61 19.00,354.96
             26.51,354.63 32.27,350.47 38.00,345.99
             47.92,338.22 56.38,328.19 68.00,323.00
             68.00,338.80 67.46,344.95 70.25,361.00
             70.25,361.00 72.73,373.00 72.73,373.00
             72.73,373.00 75.83,384.00 75.83,384.00
             76.66,389.39 70.19,396.39 67.45,401.00
             60.89,412.03 56.00,425.05 56.00,438.00
             56.00,443.34 56.30,449.87 61.11,453.27
             64.67,455.79 71.71,456.08 76.00,455.99
             87.57,455.72 100.06,450.81 110.00,445.13
             113.41,443.18 122.10,436.78 125.00,436.16
             127.93,435.54 142.58,440.34 147.00,441.20
             163.22,444.33 172.90,444.00 189.00,444.00
             183.21,455.86 174.87,462.91 166.81,473.00
             162.06,478.94 157.38,485.14 157.04,493.00
             156.40,507.80 168.42,511.98 181.00,512.00
             197.83,512.03 207.87,511.05 224.00,505.31
             234.73,501.49 251.16,492.77 258.24,483.91
             270.92,468.05 270.00,446.11 270.00,427.00
             278.18,425.74 290.16,420.22 298.00,416.85
             321.22,406.88 346.60,391.06 366.00,374.92
             373.65,368.56 387.88,356.72 392.00,348.00
             392.00,348.00 394.00,348.00 394.00,348.00
             401.05,366.79 385.79,377.00 375.45,390.00
             364.88,403.28 354.20,424.72 354.00,442.00
             353.96,445.70 353.88,449.37 354.67,453.00
             357.35,465.36 366.47,469.55 378.00,465.29
             387.17,461.90 403.75,447.06 411.00,439.99
             423.46,427.83 450.32,402.33 458.91,389.00
             478.06,359.29 476.91,322.90 461.24,292.00
             453.57,276.86 440.96,258.82 423.00,256.00
             421.33,235.58 409.39,207.17 397.00,191.00
             405.54,188.51 421.04,178.19 426.21,171.00
             433.74,160.54 438.84,134.98 439.00,122.00
             439.15,108.61 438.88,93.48 428.70,83.30
             421.67,76.27 409.73,73.12 400.00,73.00
             382.74,72.80 353.88,75.71 340.00,86.53
             334.61,90.73 329.70,98.07 326.28,104.00
             323.90,108.14 322.36,110.34 321.00,115.00
             304.71,102.52 276.57,90.68 256.00,89.00
             253.18,71.04 235.14,58.43 220.00,50.76
             188.08,34.58 151.21,34.00 121.00,54.36
             109.34,62.21 83.26,89.61 72.00,101.00
             72.00,101.00 64.72,109.00 64.72,109.00
             64.72,109.00 59.43,115.00 59.43,115.00
             51.47,124.34 36.47,143.55 51.09,154.15
             52.91,155.46 54.87,156.22 57.00,156.83
             60.36,157.80 62.55,157.96 66.00,158.00
             66.00,158.00 70.00,158.00 70.00,158.00
             86.95,157.80 107.84,147.55 121.00,137.34
             121.00,137.34 138.00,122.53 138.00,122.53
             144.85,117.26 157.40,112.27 164.00,120.00 Z
           M 236.00,88.00
           C 215.61,90.69 196.92,95.65 180.00,108.00
             174.49,104.11 171.86,100.79 165.00,98.93
             153.28,95.75 137.64,99.90 128.00,106.93
             128.00,106.93 110.00,122.58 110.00,122.58
             96.20,133.28 81.62,140.00 64.00,140.00
             69.81,128.72 88.59,110.41 98.00,101.00
             106.33,92.67 122.16,75.76 131.00,69.75
             153.84,54.20 182.23,52.58 207.00,64.76
             217.15,69.74 231.40,77.22 236.00,88.00 Z
           M 387.00,91.28
           C 395.45,90.50 409.10,90.10 415.47,96.53
             419.75,100.84 420.93,108.17 421.00,114.00
             421.13,125.48 418.16,150.84 411.36,159.96
             408.24,164.15 402.51,167.69 398.00,170.28
             395.73,171.58 390.39,174.89 388.04,175.22
             383.95,175.79 380.90,170.72 378.57,168.00
             378.57,168.00 358.00,146.01 358.00,146.01
             358.00,146.01 343.00,132.59 343.00,132.59
             341.13,131.00 337.39,128.26 336.81,125.83
             336.05,122.68 340.53,115.75 342.20,113.00
             344.70,108.89 348.19,103.50 352.04,100.64
             359.34,95.20 377.77,92.64 387.00,91.28 Z
           M 269.00,110.00
           C 269.00,110.00 266.00,126.00 266.00,126.00
             252.03,121.43 239.34,120.86 225.00,124.24
             225.00,124.24 210.00,129.00 210.00,129.00
             210.00,129.00 204.00,115.00 204.00,115.00
             225.12,105.18 246.66,103.54 269.00,110.00 Z
           M 342.00,156.00
           C 340.03,158.75 334.58,165.80 331.00,165.80
             328.43,165.80 317.93,155.71 315.00,153.42
             307.97,147.95 300.63,142.81 293.00,138.20
             290.72,136.82 284.54,133.93 283.66,131.61
             282.80,129.33 285.28,119.71 286.00,117.00
             292.11,118.74 297.54,122.25 303.00,125.42
             317.38,133.78 330.27,144.27 342.00,156.00 Z
           M 189.00,125.00
           C 189.92,127.66 193.43,135.69 193.03,137.91
             192.47,140.99 185.51,145.75 183.00,148.09
             175.68,154.90 164.60,165.93 159.00,174.00
             155.63,172.41 148.28,167.08 148.18,163.00
             148.11,159.91 153.81,154.32 155.85,152.00
             162.86,144.03 178.77,127.53 189.00,125.00 Z
           M 262.00,143.00
           C 262.00,143.00 254.80,180.00 254.80,180.00
             254.18,183.12 252.44,193.64 251.02,195.72
             249.02,198.65 242.40,199.93 239.00,200.85
             239.00,200.85 208.00,209.29 208.00,209.29
             204.50,210.28 198.38,212.48 195.00,210.94
             192.45,209.78 188.13,205.13 186.00,203.00
             186.00,203.00 171.00,188.00 171.00,188.00
             175.40,180.43 180.88,175.12 187.00,169.00
             199.21,156.79 213.45,144.71 231.00,141.46
             245.39,138.80 248.60,141.11 262.00,143.00 Z
           M 280.00,151.00
           C 309.36,168.68 345.88,202.01 361.00,233.00
             361.00,233.00 326.00,240.00 326.00,240.00
             322.88,240.62 313.59,242.93 311.00,242.23
             307.16,241.20 296.41,229.41 293.00,226.00
             293.00,226.00 278.00,211.00 278.00,211.00
             275.88,208.88 271.22,204.57 270.11,202.00
             268.78,198.91 270.91,191.46 271.60,188.00
             271.60,188.00 276.40,164.00 276.40,164.00
             277.28,159.61 277.72,154.90 280.00,151.00 Z
           M 356.00,169.00
           C 356.00,169.00 366.56,181.00 366.56,181.00
             375.11,191.13 391.45,213.56 395.00,226.00
             392.28,226.72 382.67,229.20 380.39,228.34
             377.76,227.35 372.53,216.89 370.66,214.00
             362.46,201.39 354.65,191.65 344.00,181.00
             344.00,181.00 356.00,169.00 356.00,169.00 Z
           M 125.00,231.00
           C 125.00,231.00 110.00,226.00 110.00,226.00
             110.00,226.00 135.00,179.00 135.00,179.00
             138.49,180.65 145.56,185.84 145.90,190.00
             146.10,192.50 141.19,199.43 139.72,202.00
             139.72,202.00 125.00,231.00 125.00,231.00 Z
           M 161.00,203.00
           C 161.00,203.00 175.00,217.00 175.00,217.00
             175.00,217.00 181.65,225.00 181.65,225.00
             181.65,225.00 179.29,238.00 179.29,238.00
             179.29,238.00 171.12,268.00 171.12,268.00
             171.12,268.00 166.47,280.84 166.47,280.84
             166.47,280.84 154.00,284.00 154.00,284.00
             154.00,284.00 125.00,290.00 125.00,290.00
             126.30,274.08 139.41,240.70 146.76,226.00
             149.81,219.89 156.32,207.38 161.00,203.00 Z
           M 255.00,215.61
           C 260.12,217.05 263.32,221.32 267.00,225.00
             267.00,225.00 287.00,245.00 287.00,245.00
             289.87,247.87 295.95,252.93 296.39,257.00
             296.63,259.32 294.44,266.44 293.71,269.00
             293.71,269.00 288.29,289.00 288.29,289.00
             287.14,293.04 283.47,309.08 281.28,311.28
             279.46,313.09 270.88,315.07 268.00,315.85
             268.00,315.85 240.00,323.42 240.00,323.42
             237.25,324.19 229.45,326.65 227.00,326.39
             222.28,325.88 211.74,313.74 208.00,310.00
             208.00,310.00 193.00,295.00 193.00,295.00
             191.05,293.04 187.15,289.43 186.11,287.00
             184.66,283.59 187.42,276.64 188.37,273.00
             188.37,273.00 196.29,244.00 196.29,244.00
             197.10,241.15 198.79,233.47 200.25,231.43
             202.21,228.69 210.58,227.08 214.00,226.15
             214.00,226.15 255.00,215.61 255.00,215.61 Z
           M 118.00,247.00
           C 118.00,247.00 112.02,266.00 112.02,266.00
             112.02,266.00 108.37,280.00 108.37,280.00
             108.37,280.00 104.27,293.10 104.27,293.10
             104.27,293.10 89.00,297.00 89.00,297.00
             90.21,282.24 98.18,257.46 103.00,243.00
             103.00,243.00 118.00,247.00 118.00,247.00 Z
           M 402.00,243.00
           C 407.98,265.56 406.91,286.68 397.00,308.00
             397.00,308.00 383.00,302.00 383.00,302.00
             383.00,302.00 387.99,286.00 387.99,286.00
             391.18,271.25 390.17,260.39 386.00,246.00
             386.00,246.00 402.00,243.00 402.00,243.00 Z
           M 325.00,341.00
           C 319.23,336.87 313.13,330.14 308.00,325.00
             305.75,322.74 301.58,319.02 300.69,316.00
             299.90,313.32 301.65,307.77 302.42,305.00
             302.42,305.00 308.71,282.00 308.71,282.00
             309.82,278.10 313.09,262.97 315.56,260.98
             317.31,259.57 325.39,258.32 328.00,257.80
             328.00,257.80 356.00,252.21 356.00,252.21
             358.91,251.59 365.84,249.40 368.15,251.64
             370.10,253.53 370.75,259.33 371.13,262.00
             372.63,272.68 371.40,282.01 367.13,292.00
             363.96,299.39 359.21,306.74 354.19,313.00
             345.66,323.65 335.25,332.14 325.00,341.00 Z
           M 79.00,260.00
           C 74.80,274.50 71.97,289.05 70.00,304.00
             58.36,306.19 52.10,309.52 43.00,317.30
             35.50,323.72 27.68,333.15 17.76,336.00
             17.76,336.00 17.76,330.00 17.76,330.00
             16.70,317.29 22.13,296.41 27.76,285.00
             31.09,278.23 35.43,270.55 42.01,266.48
             52.47,260.01 67.12,260.00 79.00,260.00 Z
           M 425.00,276.00
           C 434.85,281.77 441.26,293.02 446.25,303.00
             458.74,327.98 458.69,356.45 442.91,380.00
             436.49,389.59 419.83,405.17 411.00,414.00
             401.59,423.41 383.28,442.19 372.00,448.00
             372.00,431.88 377.19,419.13 386.44,406.00
             386.44,406.00 406.45,382.00 406.45,382.00
             413.20,371.58 416.98,354.70 411.65,343.00
             409.67,338.65 407.26,336.35 404.00,333.00
             409.42,323.30 415.28,313.72 418.57,303.00
             418.57,303.00 425.00,276.00 425.00,276.00 Z
           M 203.00,391.00
           C 181.86,393.79 147.18,395.44 131.67,377.83
             121.93,366.77 119.59,348.27 119.04,334.00
             119.04,334.00 121.00,309.00 121.00,309.00
             121.00,309.00 157.00,301.80 157.00,301.80
             160.61,301.08 168.81,298.74 172.00,300.11
             174.57,301.22 178.88,305.88 181.00,308.00
             181.00,308.00 196.00,323.00 196.00,323.00
             199.41,326.41 211.20,337.16 212.23,341.00
             212.93,343.59 210.62,352.88 210.00,356.00
             210.00,356.00 203.00,391.00 203.00,391.00 Z
           M 102.00,313.00
           C 102.00,313.00 101.04,331.00 101.04,331.00
             100.85,336.91 102.91,353.89 104.21,360.00
             105.38,365.50 107.16,370.86 109.44,376.00
             110.33,378.00 112.79,382.04 112.71,384.00
             112.54,387.88 105.04,393.82 102.00,396.00
             97.57,388.07 95.19,385.05 92.08,376.00
             85.65,357.32 85.97,343.20 86.00,324.00
             86.00,322.03 85.74,318.31 86.99,316.73
             88.81,314.44 98.94,313.25 102.00,313.00 Z
           M 387.00,323.00
           C 384.51,333.07 367.89,349.21 360.00,356.15
             357.68,358.19 352.09,363.89 349.00,363.82
             344.92,363.72 339.59,356.37 338.00,353.00
             338.00,353.00 363.91,329.00 363.91,329.00
             363.91,329.00 374.09,318.97 374.09,318.97
             374.09,318.97 387.00,323.00 387.00,323.00 Z
           M 309.00,352.00
           C 285.87,364.93 274.66,371.45 249.00,380.00
             241.06,382.65 230.25,386.31 222.00,387.00
             222.00,387.00 228.00,358.00 228.00,358.00
             228.00,358.00 231.16,345.53 231.16,345.53
             231.16,345.53 244.00,340.88 244.00,340.88
             244.00,340.88 274.00,332.71 274.00,332.71
             274.00,332.71 287.00,330.35 287.00,330.35
             287.00,330.35 295.00,337.00 295.00,337.00
             295.00,337.00 309.00,352.00 309.00,352.00 Z
           M 333.00,377.00
           C 333.00,377.00 286.00,402.00 286.00,402.00
             286.00,402.00 281.00,387.00 281.00,387.00
             281.00,387.00 310.00,371.99 310.00,371.99
             312.59,370.47 319.25,365.83 322.00,366.09
             326.19,366.49 331.33,373.46 333.00,377.00 Z
           M 265.00,394.00
           C 265.00,394.00 269.00,409.00 269.00,409.00
             254.54,413.82 229.76,421.79 215.00,423.00
             215.00,423.00 218.90,407.73 218.90,407.73
             218.90,407.73 232.00,403.63 232.00,403.63
             232.00,403.63 265.00,394.00 265.00,394.00 Z
           M 199.00,410.00
           C 199.00,410.00 196.00,426.00 196.00,426.00
             174.28,426.00 157.15,427.20 136.00,419.92
             126.95,416.81 123.93,414.43 116.00,410.00
             117.79,406.25 123.56,399.55 128.00,399.23
             130.34,399.06 134.75,401.66 137.00,402.69
             142.45,405.19 148.15,407.27 154.00,408.58
             165.13,411.06 171.79,411.13 183.00,411.00
             183.00,411.00 199.00,410.00 199.00,410.00 Z
           M 88.00,406.00
           C 92.70,413.40 98.60,419.30 106.00,424.00
             101.33,432.85 83.36,436.76 74.00,438.00
             75.24,428.64 79.15,410.67 88.00,406.00 Z
           M 252.00,433.00
           C 252.00,444.74 251.89,459.69 245.52,469.99
             241.45,476.57 233.77,480.91 227.00,484.24
             215.59,489.86 196.74,494.66 184.00,494.66
             184.00,494.66 176.00,494.00 176.00,494.00
             178.85,484.32 188.28,476.50 194.70,469.00
             202.21,460.22 205.88,453.25 208.00,442.00
             222.83,440.04 237.62,437.17 252.00,433.00 Z" />
</svg>
