<?xml version="1.0" encoding="UTF-8" standalone="no"?>
<!DOCTYPE svg PUBLIC "-//W3C//DTD SVG 20010904//EN"
              "http://www.w3.org/TR/2001/REC-SVG-20010904/DTD/svg10.dtd">

<svg xmlns="http://www.w3.org/2000/svg"
     width="180.6mm" height="180.6mm"
     viewBox="0 0 512 512">
  <path id="Selection"
        fill="none" stroke="black" stroke-width="1"
        d="M 169.00,102.00
           C 169.00,102.00 135.00,102.00 135.00,102.00
             109.76,102.00 93.67,101.80 70.00,113.26
             59.73,118.23 48.35,125.33 40.00,133.09
             23.15,148.76 10.76,167.79 4.43,190.00
             1.93,198.74 0.01,207.89 0.00,217.00
             0.00,217.00 0.00,240.00 0.00,240.00
             0.06,280.15 18.53,331.65 40.34,365.00
             77.90,422.41 136.60,463.07 204.00,476.55
             214.60,478.67 230.31,480.95 241.00,481.00
             241.00,481.00 256.00,482.00 256.00,482.00
             256.00,482.00 274.00,481.00 274.00,481.00
             294.30,480.76 325.89,473.17 345.00,466.05
             419.15,438.41 474.65,381.06 499.67,306.00
             505.57,288.30 511.78,260.55 512.00,242.00
             512.06,236.37 513.35,222.22 509.69,218.23
             505.68,213.85 497.53,215.00 492.00,215.00
             492.00,215.00 448.00,215.00 448.00,215.00
             448.00,215.00 251.00,215.00 251.00,215.00
             251.00,191.80 253.49,169.28 242.22,148.00
             239.29,142.47 235.71,137.15 231.00,133.00
             255.35,106.42 251.05,78.05 251.00,45.00
             250.99,40.49 251.19,35.81 247.61,32.43
             245.06,30.03 242.27,30.05 239.00,30.00
             227.11,29.84 217.63,31.73 207.00,37.32
             181.53,50.72 169.00,73.78 169.00,102.00 Z
           M 230.00,52.00
           C 230.00,69.25 232.09,89.17 224.68,105.00
             222.30,110.08 218.02,115.98 213.96,119.83
             210.31,123.29 204.16,127.24 204.41,133.00
             204.63,137.93 210.54,142.25 213.83,145.42
             217.87,149.32 222.76,155.89 225.10,161.00
             231.78,175.54 230.00,196.99 230.00,213.00
             224.52,212.51 219.78,210.86 215.00,208.12
             200.18,199.62 190.08,183.14 190.00,166.00
             190.00,166.00 190.00,151.00 190.00,151.00
             190.00,151.00 190.00,121.00 190.00,121.00
             190.00,106.73 188.28,93.28 194.31,80.00
             200.31,66.78 215.09,53.35 230.00,52.00 Z
           M 169.00,123.00
           C 169.00,123.00 169.00,143.00 169.00,143.00
             147.11,143.00 124.94,139.31 108.29,157.09
             87.05,179.76 92.40,213.75 119.00,229.53
             127.57,234.61 138.18,235.98 148.00,236.00
             148.00,236.00 420.00,236.00 420.00,236.00
             420.00,236.00 404.00,248.44 404.00,248.44
             396.11,255.09 387.27,264.66 381.15,273.00
             381.15,273.00 354.28,317.00 354.28,317.00
             345.65,329.32 335.41,338.83 323.00,347.25
             289.19,370.22 255.65,368.00 217.00,368.00
             217.00,368.00 77.00,368.00 77.00,368.00
             74.54,368.00 71.36,368.21 69.17,366.98
             66.65,365.57 63.99,361.41 62.34,359.00
             62.34,359.00 51.00,341.00 51.00,341.00
             36.39,315.44 26.92,287.13 22.87,258.00
             22.87,258.00 21.00,240.00 21.00,240.00
             20.81,223.11 19.93,211.45 25.02,195.00
             34.93,163.05 59.17,138.16 91.00,127.67
             98.01,125.36 108.65,123.09 116.00,123.00
             116.00,123.00 169.00,123.00 169.00,123.00 Z
           M 169.00,164.00
           C 169.00,177.36 171.52,188.38 178.45,200.00
             178.45,200.00 189.00,215.00 189.00,215.00
             189.00,215.00 147.00,215.00 147.00,215.00
             139.76,214.99 134.34,214.48 128.00,210.53
             111.26,200.10 112.89,175.55 130.00,166.41
             137.36,162.48 159.73,164.00 169.00,164.00 Z
           M 491.00,236.00
           C 491.00,252.76 487.51,270.84 483.15,287.00
             461.82,366.12 399.79,428.94 321.00,451.42
             304.16,456.23 286.55,459.80 269.00,460.00
             269.00,460.00 258.00,460.96 258.00,460.96
             258.00,460.96 235.00,459.83 235.00,459.83
             235.00,459.83 210.00,456.20 210.00,456.20
             210.00,456.20 195.00,453.00 195.00,453.00
             199.13,451.36 204.55,452.01 209.00,452.00
             216.89,451.99 224.66,450.51 232.00,447.55
             236.34,445.79 242.85,441.76 247.00,441.22
             247.00,441.22 257.00,441.92 257.00,441.92
             257.00,441.92 275.00,440.83 275.00,440.83
             296.26,438.80 317.16,433.66 337.00,425.80
             344.02,423.01 364.87,413.17 369.78,408.48
             374.79,403.70 374.08,395.77 367.91,392.31
             360.53,388.18 345.37,399.31 338.00,402.69
             318.40,411.69 289.60,419.98 268.00,420.00
             270.16,413.15 274.04,409.51 277.12,398.00
             277.79,395.46 278.82,388.49 280.59,386.98
             281.97,385.82 287.95,384.64 290.00,384.13
             296.27,382.56 300.96,381.19 307.00,378.80
             323.68,372.19 338.68,362.87 352.00,350.83
             375.29,329.80 379.18,313.11 394.52,290.00
             404.37,275.15 416.75,262.90 432.00,253.61
             436.98,250.58 444.45,246.58 450.00,245.00
             449.46,256.75 444.23,277.74 440.31,289.00
             437.20,297.90 433.51,306.60 429.24,315.00
             426.88,319.64 418.07,333.59 417.41,337.00
             416.32,342.60 420.46,347.92 426.00,348.76
             435.77,350.23 441.94,335.03 445.86,328.00
             461.45,299.99 466.16,276.91 471.41,246.00
             473.12,235.95 476.95,236.12 487.00,236.00
             487.00,236.00 491.00,236.00 491.00,236.00 Z
           M 313.00,311.57
           C 298.34,317.36 306.78,335.22 318.98,331.35
             326.84,328.86 327.52,319.07 323.35,314.39
             320.45,311.13 316.98,310.95 313.00,311.57 Z
           M 396.00,363.57
           C 381.34,369.36 389.78,387.22 401.98,383.35
             409.84,380.86 410.52,371.07 406.35,366.39
             403.45,363.13 399.98,362.95 396.00,363.57 Z
           M 147.00,433.00
           C 139.66,430.90 133.36,426.13 127.00,422.05
             115.09,414.41 95.04,399.22 87.00,388.00
             87.00,388.00 113.00,388.58 113.00,388.58
             113.00,388.58 135.00,404.33 135.00,404.33
             135.00,404.33 150.33,415.38 150.33,415.38
             150.33,415.38 147.00,433.00 147.00,433.00 Z
           M 169.00,388.00
           C 169.00,388.00 163.00,396.00 163.00,396.00
             163.00,396.00 149.00,389.00 149.00,389.00
             149.00,389.00 169.00,388.00 169.00,388.00 Z
           M 258.00,388.00
           C 256.67,394.61 255.39,398.03 252.22,404.00
             249.21,409.66 246.62,412.54 242.00,416.96
             222.22,435.87 194.26,432.00 169.00,432.00
             169.54,425.99 171.44,421.27 174.31,416.00
             192.23,383.17 226.39,388.00 258.00,388.00 Z" />
</svg>
